# xmcd CD database file
#
# Track frame offsets:
#	150
#	14929
#	27813
#	39574
#	48951
#	57648
#	66283
#	76965
#	87492
#	96156
#
# Disc length: 1372 seconds
#
# Revision: 2
# Processed by: cddbd v1.5.2PL0 Copyright (c) Steve Scherf et al.
# Submitted via: CDex 1.70beta2
#
DISCID=86055a0a
DTITLE=Waylon Jennings - Country Outlaw
DYEAR=2005
DGENRE=Country
TTITLE0=There Ain't No Good Chain Gang (with Johnny Cash)
TTITLE1=The Eagle
TTITLE2=Crying
TTITLE3=Heartaches By The Number
TTITLE4=Jolé Blon
TTITLE5=Love's Gonna Live Here
TTITLE6=I've Got A Tiger By The Tail
TTITLE7=Burning Memories
TTITLE8=Foolin' Around
TTITLE9=It's So Easy
EXTD=YEAR: 2005
EXTT0=
EXTT1=
EXTT2=
EXTT3=
EXTT4=
EXTT5=
EXTT6=
EXTT7=
EXTT8=
EXTT9=
PLAYORDER=
